# xmcd CD database file
#
# Track frame offsets:
#	150
#	15650
#	24182
#	38071
#	51214
#	63870
#	79827
#	92678
#	104873
#	116593
#	130415
#	142370
#	160726
#	174224
#
# Disc length: 2493 seconds
#
# Revision: 0
# Processed by: cddbd v1.4PL0 Copyright (c) Steve Scherf et al.
# Submitted via: CDex 1.50
#
DISCID=b709bb0e
DTITLE=Paberky Marko Cermaka - V rytmu old-time
DYEAR=2003
DGENRE=Country
TTITLE0=Dva copy cerny
TTITLE1=Cas a dest
TTITLE2=Windy Bill
TTITLE3=Dal se ptas
TTITLE4=Chlapik Floyd
TTITLE5=Rybaru raj
TTITLE6=Zebra Dun
TTITLE7=Mam rad kdyz sedlo houpa
TTITLE8=Jsem emigrant
TTITLE9=Nebe modry jak dziny
TTITLE10=Den divnej
TTITLE11=Prazdne sedlo
TTITLE12=A zas kacet pujdeme dal
TTITLE13=John Henry
EXTD=YEAR: 2003
EXTT0=
EXTT1=
EXTT2=
EXTT3=
EXTT4=
EXTT5=
EXTT6=
EXTT7=
EXTT8=
EXTT9=
EXTT10=
EXTT11=
EXTT12=
EXTT13=
PLAYORDER=
